<mxfile host="app.diagrams.net" agent="Mozilla/5.0 (Windows NT 10.0; Win64; x64) AppleWebKit/537.36 (KHTML, like Gecko) Chrome/129.0.0.0 Safari/537.36 Edg/129.0.0.0" version="24.7.16">
  <diagram name="Page-1" id="C3UPrlabcGJj99FiEu4Y">
    <mxGraphModel dx="785" dy="527" grid="1" gridSize="10" guides="1" tooltips="1" connect="1" arrows="1" fold="1" page="1" pageScale="1" pageWidth="850" pageHeight="1100" math="0" shadow="0">
      <root>
        <mxCell id="0" />
        <mxCell id="1" parent="0" />
        <mxCell id="PsWhPvllKd4ZDIP7h5bm-1" value="PersonalAccount" style="swimlane;fontStyle=1;align=center;verticalAlign=top;childLayout=stackLayout;horizontal=1;startSize=26;horizontalStack=0;resizeParent=1;resizeParentMax=0;resizeLast=0;collapsible=1;marginBottom=0;whiteSpace=wrap;html=1;" vertex="1" parent="1">
          <mxGeometry x="100" y="70" width="220" height="220" as="geometry" />
        </mxCell>
        <mxCell id="PsWhPvllKd4ZDIP7h5bm-2" value="+ accountNumber: int&lt;div&gt;+ accountHolder: String&lt;/div&gt;&lt;div&gt;+ balance: double&lt;/div&gt;&lt;div&gt;+ transactions: ArrayList&amp;lt;Amount&amp;gt;&amp;nbsp;&lt;/div&gt;" style="text;strokeColor=none;fillColor=none;align=left;verticalAlign=top;spacingLeft=4;spacingRight=4;overflow=hidden;rotatable=0;points=[[0,0.5],[1,0.5]];portConstraint=eastwest;whiteSpace=wrap;html=1;" vertex="1" parent="PsWhPvllKd4ZDIP7h5bm-1">
          <mxGeometry y="26" width="220" height="74" as="geometry" />
        </mxCell>
        <mxCell id="PsWhPvllKd4ZDIP7h5bm-3" value="" style="line;strokeWidth=1;fillColor=none;align=left;verticalAlign=middle;spacingTop=-1;spacingLeft=3;spacingRight=3;rotatable=0;labelPosition=right;points=[];portConstraint=eastwest;strokeColor=inherit;" vertex="1" parent="PsWhPvllKd4ZDIP7h5bm-1">
          <mxGeometry y="100" width="220" height="8" as="geometry" />
        </mxCell>
        <mxCell id="PsWhPvllKd4ZDIP7h5bm-4" value="+ deposit(amount: double): void&lt;div&gt;+ withdraw(amount: double): void&lt;/div&gt;&lt;div&gt;+ printTransactionHistory(): void&lt;/div&gt;&lt;div&gt;+ getBalance(): double&lt;/div&gt;&lt;div&gt;+ getAccountNumber(): int&lt;/div&gt;&lt;div&gt;+ getAccountHolder(): String&lt;/div&gt;&lt;div&gt;&lt;br&gt;&lt;/div&gt;" style="text;strokeColor=none;fillColor=none;align=left;verticalAlign=top;spacingLeft=4;spacingRight=4;overflow=hidden;rotatable=0;points=[[0,0.5],[1,0.5]];portConstraint=eastwest;whiteSpace=wrap;html=1;" vertex="1" parent="PsWhPvllKd4ZDIP7h5bm-1">
          <mxGeometry y="108" width="220" height="112" as="geometry" />
        </mxCell>
        <mxCell id="PsWhPvllKd4ZDIP7h5bm-5" value="Amount" style="swimlane;fontStyle=0;childLayout=stackLayout;horizontal=1;startSize=26;fillColor=none;horizontalStack=0;resizeParent=1;resizeParentMax=0;resizeLast=0;collapsible=1;marginBottom=0;whiteSpace=wrap;html=1;" vertex="1" parent="1">
          <mxGeometry x="340" y="70" width="210" height="90" as="geometry" />
        </mxCell>
        <mxCell id="PsWhPvllKd4ZDIP7h5bm-6" value="+ amount: double&lt;div&gt;&lt;br&gt;&lt;/div&gt;" style="text;strokeColor=none;fillColor=none;align=left;verticalAlign=top;spacingLeft=4;spacingRight=4;overflow=hidden;rotatable=0;points=[[0,0.5],[1,0.5]];portConstraint=eastwest;whiteSpace=wrap;html=1;" vertex="1" parent="PsWhPvllKd4ZDIP7h5bm-5">
          <mxGeometry y="26" width="210" height="26" as="geometry" />
        </mxCell>
        <mxCell id="PsWhPvllKd4ZDIP7h5bm-7" value="+ transactionType: TransactionType" style="text;strokeColor=none;fillColor=none;align=left;verticalAlign=top;spacingLeft=4;spacingRight=4;overflow=hidden;rotatable=0;points=[[0,0.5],[1,0.5]];portConstraint=eastwest;whiteSpace=wrap;html=1;" vertex="1" parent="PsWhPvllKd4ZDIP7h5bm-5">
          <mxGeometry y="52" width="210" height="38" as="geometry" />
        </mxCell>
        <mxCell id="PsWhPvllKd4ZDIP7h5bm-9" value="TransactionType" style="swimlane;fontStyle=1;align=center;verticalAlign=top;childLayout=stackLayout;horizontal=1;startSize=26;horizontalStack=0;resizeParent=1;resizeParentMax=0;resizeLast=0;collapsible=1;marginBottom=0;whiteSpace=wrap;html=1;" vertex="1" parent="1">
          <mxGeometry x="580" y="70" width="160" height="70" as="geometry" />
        </mxCell>
        <mxCell id="PsWhPvllKd4ZDIP7h5bm-10" value="DEPOSIT&lt;div&gt;WITHDRAWAL&lt;/div&gt;" style="text;strokeColor=none;fillColor=none;align=left;verticalAlign=top;spacingLeft=4;spacingRight=4;overflow=hidden;rotatable=0;points=[[0,0.5],[1,0.5]];portConstraint=eastwest;whiteSpace=wrap;html=1;" vertex="1" parent="PsWhPvllKd4ZDIP7h5bm-9">
          <mxGeometry y="26" width="160" height="44" as="geometry" />
        </mxCell>
      </root>
    </mxGraphModel>
  </diagram>
</mxfile>
